<svg width="45" height="57" viewBox="0 0 45 57" fill="none" xmlns="http://www.w3.org/2000/svg">
<path d="M11 4V44" stroke="#213FDA" stroke-width="2" stroke-linejoin="round"/>
<path d="M10 4.5H28V22.5H10" stroke="#213FDA" stroke-width="2" stroke-linejoin="round"/>
<path d="M37 44L37 4" stroke="#16B126" stroke-width="2" stroke-linejoin="round"/>
<path d="M38 43.5L20 43.5L20 25.5L38 25.5" stroke="#16B126" stroke-width="2" stroke-linejoin="round"/>
<path d="M24.0831 35.1293C23.755 35.1293 23.4732 35.0133 23.2379 34.7812C23.0059 34.5459 22.8899 34.2642 22.8899 33.9361C22.8899 33.6113 23.0059 33.3329 23.2379 33.1009C23.4732 32.8688 23.755 32.7528 24.0831 32.7528C24.4013 32.7528 24.6797 32.8688 24.9183 33.1009C25.157 33.3329 25.2763 33.6113 25.2763 33.9361C25.2763 34.1548 25.2199 34.3554 25.1072 34.5376C24.9979 34.7166 24.8537 34.8608 24.6747 34.9702C24.4957 35.0762 24.2985 35.1293 24.0831 35.1293ZM28.253 35.1293C27.9249 35.1293 27.6432 35.0133 27.4078 34.7812C27.1758 34.5459 27.0598 34.2642 27.0598 33.9361C27.0598 33.6113 27.1758 33.3329 27.4078 33.1009C27.6432 32.8688 27.9249 32.7528 28.253 32.7528C28.5712 32.7528 28.8496 32.8688 29.0882 33.1009C29.3269 33.3329 29.4462 33.6113 29.4462 33.9361C29.4462 34.1548 29.3899 34.3554 29.2772 34.5376C29.1678 34.7166 29.0236 34.8608 28.8446 34.9702C28.6657 35.0762 28.4685 35.1293 28.253 35.1293ZM32.4229 35.1293C32.0948 35.1293 31.8131 35.0133 31.5778 34.7812C31.3458 34.5459 31.2298 34.2642 31.2298 33.9361C31.2298 33.6113 31.3458 33.3329 31.5778 33.1009C31.8131 32.8688 32.0948 32.7528 32.4229 32.7528C32.7411 32.7528 33.0195 32.8688 33.2582 33.1009C33.4968 33.3329 33.6161 33.6113 33.6161 33.9361C33.6161 34.1548 33.5598 34.3554 33.4471 34.5376C33.3377 34.7166 33.1935 34.8608 33.0146 34.9702C32.8356 35.0762 32.6384 35.1293 32.4229 35.1293Z" fill="#16B126"/>
<path d="M15.0831 14.1293C14.755 14.1293 14.4732 14.0133 14.2379 13.7812C14.0059 13.5459 13.8899 13.2642 13.8899 12.9361C13.8899 12.6113 14.0059 12.3329 14.2379 12.1009C14.4732 11.8688 14.755 11.7528 15.0831 11.7528C15.4013 11.7528 15.6797 11.8688 15.9183 12.1009C16.157 12.3329 16.2763 12.6113 16.2763 12.9361C16.2763 13.1548 16.2199 13.3554 16.1072 13.5376C15.9979 13.7166 15.8537 13.8608 15.6747 13.9702C15.4957 14.0762 15.2985 14.1293 15.0831 14.1293ZM19.253 14.1293C18.9249 14.1293 18.6432 14.0133 18.4078 13.7812C18.1758 13.5459 18.0598 13.2642 18.0598 12.9361C18.0598 12.6113 18.1758 12.3329 18.4078 12.1009C18.6432 11.8688 18.9249 11.7528 19.253 11.7528C19.5712 11.7528 19.8496 11.8688 20.0882 12.1009C20.3269 12.3329 20.4462 12.6113 20.4462 12.9361C20.4462 13.1548 20.3899 13.3554 20.2772 13.5376C20.1678 13.7166 20.0236 13.8608 19.8446 13.9702C19.6657 14.0762 19.4685 14.1293 19.253 14.1293ZM23.4229 14.1293C23.0948 14.1293 22.8131 14.0133 22.5778 13.7812C22.3458 13.5459 22.2298 13.2642 22.2298 12.9361C22.2298 12.6113 22.3458 12.3329 22.5778 12.1009C22.8131 11.8688 23.0948 11.7528 23.4229 11.7528C23.7411 11.7528 24.0195 11.8688 24.2582 12.1009C24.4968 12.3329 24.6161 12.6113 24.6161 12.9361C24.6161 13.1548 24.5598 13.3554 24.4471 13.5376C24.3377 13.7166 24.1935 13.8608 24.0146 13.9702C23.8356 14.0762 23.6384 14.1293 23.4229 14.1293Z" fill="#213FDA"/>
<path d="M0.799006 54V46.7273H3.39134C3.95715 46.7273 4.4259 46.8303 4.79759 47.0362C5.16927 47.2422 5.44744 47.5239 5.6321 47.8814C5.81676 48.2365 5.90909 48.6366 5.90909 49.0817C5.90909 49.5291 5.81558 49.9316 5.62855 50.2891C5.44389 50.6442 5.16454 50.9259 4.79048 51.1342C4.4188 51.3402 3.95123 51.4432 3.38778 51.4432H1.60511V50.5128H3.28835C3.64583 50.5128 3.93584 50.4512 4.15838 50.3281C4.38092 50.2027 4.54427 50.0322 4.64844 49.8168C4.7526 49.6013 4.80469 49.3563 4.80469 49.0817C4.80469 48.8071 4.7526 48.5632 4.64844 48.3501C4.54427 48.1371 4.37973 47.9702 4.15483 47.8494C3.93229 47.7287 3.63873 47.6683 3.27415 47.6683H1.89631V54H0.799006ZM7.11026 54V48.5455H8.17205V54H7.11026ZM7.64648 47.7038C7.46183 47.7038 7.30321 47.6423 7.17063 47.5192C7.04042 47.3937 6.97532 47.2446 6.97532 47.0717C6.97532 46.8965 7.04042 46.7474 7.17063 46.6243C7.30321 46.4988 7.46183 46.4361 7.64648 46.4361C7.83114 46.4361 7.98858 46.4988 8.11879 46.6243C8.25136 46.7474 8.31765 46.8965 8.31765 47.0717C8.31765 47.2446 8.25136 47.3937 8.11879 47.5192C7.98858 47.6423 7.83114 47.7038 7.64648 47.7038ZM11.6424 54.1065C11.2021 54.1065 10.8091 53.9941 10.4634 53.7692C10.1201 53.5419 9.85026 53.2187 9.65376 52.7997C9.45964 52.3783 9.36257 51.8729 9.36257 51.2834C9.36257 50.6939 9.46082 50.1896 9.65732 49.7706C9.85618 49.3516 10.1284 49.0308 10.4741 48.8082C10.8197 48.5857 11.2115 48.4744 11.6495 48.4744C11.988 48.4744 12.2603 48.5312 12.4663 48.6449C12.6746 48.7562 12.8356 48.8864 12.9492 49.0355C13.0652 49.1847 13.1552 49.3161 13.2191 49.4297H13.283V46.7273H14.3448V54H13.3079V53.1513H13.2191C13.1552 53.2673 13.0629 53.3999 12.9421 53.549C12.8237 53.6982 12.6604 53.8284 12.4521 53.9396C12.2437 54.0509 11.9738 54.1065 11.6424 54.1065ZM11.8768 53.201C12.1822 53.201 12.4402 53.1205 12.6509 52.9595C12.864 52.7962 13.025 52.5701 13.1339 52.2812C13.2451 51.9924 13.3008 51.6562 13.3008 51.2727C13.3008 50.8939 13.2463 50.5625 13.1374 50.2784C13.0285 49.9943 12.8687 49.773 12.658 49.6143C12.4473 49.4557 12.1869 49.3764 11.8768 49.3764C11.5572 49.3764 11.2908 49.4593 11.0778 49.625C10.8647 49.7907 10.7037 50.0168 10.5948 50.3033C10.4883 50.5897 10.435 50.9129 10.435 51.2727C10.435 51.6373 10.4895 51.9652 10.5984 52.2564C10.7073 52.5476 10.8683 52.7784 11.0813 52.9489C11.2968 53.117 11.5619 53.201 11.8768 53.201ZM18.1472 56.1591C17.714 56.1591 17.3411 56.1023 17.0286 55.9886C16.7185 55.875 16.4651 55.7247 16.2686 55.5376C16.0721 55.3506 15.9254 55.1458 15.8283 54.9233L16.7409 54.5469C16.8049 54.651 16.8901 54.7611 16.9966 54.8771C17.1055 54.9955 17.2523 55.0961 17.437 55.179C17.624 55.2618 17.8643 55.3033 18.1578 55.3033C18.5603 55.3033 18.8929 55.205 19.1557 55.0085C19.4185 54.8144 19.5499 54.5043 19.5499 54.0781V53.0057H19.4824C19.4185 53.1217 19.3262 53.2507 19.2054 53.3928C19.0871 53.5348 18.9237 53.6579 18.7154 53.7621C18.507 53.8662 18.236 53.9183 17.9022 53.9183C17.4713 53.9183 17.083 53.8177 16.7374 53.6165C16.3941 53.4129 16.1219 53.1134 15.9206 52.718C15.7218 52.3203 15.6223 51.8314 15.6223 51.2514C15.6223 50.6714 15.7206 50.1742 15.9171 49.7599C16.1159 49.3456 16.3882 49.0284 16.7338 48.8082C17.0795 48.5857 17.4713 48.4744 17.9093 48.4744C18.2478 48.4744 18.5212 48.5312 18.7296 48.6449C18.9379 48.7562 19.1001 48.8864 19.2161 49.0355C19.3345 49.1847 19.4256 49.3161 19.4895 49.4297H19.5676V48.5455H20.6081V54.1207C20.6081 54.5895 20.4992 54.9742 20.2814 55.2749C20.0636 55.5755 19.7689 55.7981 19.3972 55.9425C19.0279 56.0869 18.6112 56.1591 18.1472 56.1591ZM18.1365 53.0376C18.4419 53.0376 18.7 52.9666 18.9107 52.8246C19.1238 52.6802 19.2847 52.4742 19.3936 52.2067C19.5049 51.9368 19.5605 51.6136 19.5605 51.2372C19.5605 50.8703 19.5061 50.5471 19.3972 50.2678C19.2883 49.9884 19.1285 49.7706 18.9178 49.6143C18.7071 49.4557 18.4467 49.3764 18.1365 49.3764C17.8169 49.3764 17.5506 49.4593 17.3375 49.625C17.1245 49.7884 16.9635 50.0109 16.8546 50.2926C16.748 50.5743 16.6948 50.8892 16.6948 51.2372C16.6948 51.5947 16.7492 51.9084 16.8581 52.1783C16.967 52.4482 17.128 52.6589 17.3411 52.8104C17.5565 52.9619 17.8217 53.0376 18.1365 53.0376ZM22.0321 54V48.5455H23.0939V54H22.0321ZM22.5684 47.7038C22.3837 47.7038 22.2251 47.6423 22.0925 47.5192C21.9623 47.3937 21.8972 47.2446 21.8972 47.0717C21.8972 46.8965 21.9623 46.7474 22.0925 46.6243C22.2251 46.4988 22.3837 46.4361 22.5684 46.4361C22.753 46.4361 22.9105 46.4988 23.0407 46.6243C23.1732 46.7474 23.2395 46.8965 23.2395 47.0717C23.2395 47.2446 23.1732 47.3937 23.0407 47.5192C22.9105 47.6423 22.753 47.7038 22.5684 47.7038ZM25.5842 50.7614V54H24.5224V48.5455H25.5415V49.4332H25.609C25.7345 49.1444 25.931 48.9124 26.1985 48.7372C26.4684 48.562 26.8081 48.4744 27.2177 48.4744C27.5894 48.4744 27.9149 48.5526 28.1942 48.7088C28.4736 48.8627 28.6902 49.0923 28.8441 49.3977C28.998 49.7031 29.0749 50.0807 29.0749 50.5305V54H28.0131V50.6584C28.0131 50.263 27.9102 49.9541 27.7042 49.7315C27.4982 49.5066 27.2153 49.3942 26.8555 49.3942C26.6093 49.3942 26.3903 49.4474 26.1985 49.554C26.0091 49.6605 25.8588 49.8168 25.7475 50.0227C25.6386 50.2263 25.5842 50.4725 25.5842 50.7614Z" fill="#213FDA"/>
<path d="M30.5842 54V46.7273H33.1765C33.7423 46.7273 34.2111 46.8303 34.5827 47.0362C34.9544 47.2422 35.2326 47.5239 35.4173 47.8814C35.6019 48.2365 35.6942 48.6366 35.6942 49.0817C35.6942 49.5291 35.6007 49.9316 35.4137 50.2891C35.229 50.6442 34.9497 50.9259 34.5756 51.1342C34.204 51.3402 33.7364 51.4432 33.1729 51.4432H31.3903V50.5128H33.0735C33.431 50.5128 33.721 50.4512 33.9435 50.3281C34.1661 50.2027 34.3294 50.0322 34.4336 49.8168C34.5378 49.6013 34.5898 49.3563 34.5898 49.0817C34.5898 48.8071 34.5378 48.5632 34.4336 48.3501C34.3294 48.1371 34.1649 47.9702 33.94 47.8494C33.7174 47.7287 33.4239 47.6683 33.0593 47.6683H31.6815V54H30.5842ZM38.4339 54.1207C38.0883 54.1207 37.7758 54.0568 37.4964 53.929C37.2171 53.7988 36.9957 53.6106 36.8324 53.3643C36.6714 53.1181 36.5909 52.8163 36.5909 52.4588C36.5909 52.151 36.6501 51.8977 36.7685 51.6989C36.8868 51.5 37.0466 51.3426 37.2479 51.2266C37.4491 51.1106 37.674 51.023 37.9226 50.9638C38.1712 50.9046 38.4245 50.8596 38.6825 50.8288C39.0092 50.791 39.2744 50.7602 39.478 50.7365C39.6816 50.7105 39.8295 50.669 39.9219 50.6122C40.0142 50.5554 40.0604 50.4631 40.0604 50.3352V50.3104C40.0604 50.0002 39.9728 49.7599 39.7976 49.5895C39.6248 49.419 39.3667 49.3338 39.0234 49.3338C38.666 49.3338 38.3842 49.4131 38.1783 49.5717C37.9747 49.728 37.8338 49.902 37.7557 50.0938L36.7578 49.8665C36.8762 49.535 37.049 49.2675 37.2763 49.0639C37.5059 48.858 37.7699 48.7088 38.0682 48.6165C38.3665 48.5218 38.6802 48.4744 39.0092 48.4744C39.227 48.4744 39.4579 48.5005 39.7017 48.5526C39.9479 48.6023 40.1776 48.6946 40.3906 48.8295C40.6061 48.9645 40.7824 49.1574 40.9197 49.4084C41.0571 49.657 41.1257 49.9801 41.1257 50.3778V54H40.0888V53.2543H40.0462C39.9775 53.3916 39.8745 53.5265 39.7372 53.6591C39.5999 53.7917 39.4235 53.9018 39.2081 53.9893C38.9927 54.0769 38.7346 54.1207 38.4339 54.1207ZM38.6648 53.2685C38.9583 53.2685 39.2093 53.2105 39.4176 53.0945C39.6283 52.9785 39.7881 52.8269 39.897 52.6399C40.0083 52.4505 40.0639 52.2481 40.0639 52.0327V51.3295C40.026 51.3674 39.9527 51.4029 39.8438 51.4361C39.7372 51.4669 39.6153 51.4941 39.478 51.5178C39.3407 51.5391 39.2069 51.5592 39.0767 51.5781C38.9465 51.5947 38.8376 51.6089 38.75 51.6207C38.544 51.6468 38.3558 51.6906 38.1854 51.7521C38.0173 51.8137 37.8823 51.9025 37.7805 52.0185C37.6811 52.1321 37.6314 52.2836 37.6314 52.473C37.6314 52.7358 37.7285 52.9347 37.9226 53.0696C38.1167 53.2022 38.3641 53.2685 38.6648 53.2685ZM43.6017 46.7273V54H42.54V46.7273H43.6017Z" fill="#16B126"/>
</svg>
